<svg width="100" height="100" viewBox="0 0 100 100" fill="none" xmlns="http://www.w3.org/2000/svg">
<rect width="100" height="100" rx="50" fill="#F8F8F8"/>
<path d="M20.8994 31H35.9188L41.551 42.2645L35.9188 68.5484H20.8994L26.5317 42.2645L20.8994 31Z" fill="#D9D9D9"/>
<path d="M20.8994 31H35.9188L41.551 42.2645L35.9188 68.5484L20.8994 31Z" fill="#ADAFB2"/>
<path d="M39.6738 31H54.6932L60.3254 42.2645L54.6932 68.5484H39.6738L45.3061 42.2645L39.6738 31Z" fill="#75BEE9"/>
<path d="M58.4482 31H73.4676L79.0999 42.2645L73.4676 68.5484H58.4482L64.0805 42.2645L58.4482 31Z" fill="#F37164"/>
<path d="M39.6738 31H54.6932L60.3254 42.2645L54.6932 68.5484L39.6738 31Z" fill="#0072BC"/>
<path d="M58.4482 31H73.4676L79.0999 42.2645L73.4676 68.5484L58.4482 31Z" fill="#ED1B35"/>
</svg>
